<svg width="61" height="61" viewBox="0 0 61 61" fill="none" xmlns="http://www.w3.org/2000/svg">
    <path fill-rule="evenodd" clip-rule="evenodd" d="M56.1964 61H4.80394C2.15074 61 0 58.8492 0 56.1959V4.80369C0 2.15074 2.15074 0 4.80394 0H56.1964C58.8496 0 61 2.15074 61 4.80369V56.1959C61 58.8492 58.8496 61 56.1964 61Z" fill="#1F2B2D"/>
    <path fill-rule="evenodd" clip-rule="evenodd" d="M27.9864 40.7037L17.9933 30.4689L22.9598 25.3828L27.9864 30.5309L33.0134 25.3828L37.9795 30.4689L27.9864 40.7037ZM53 15.0861L48.0335 10L43.0069 15.1481L37.9795 10L32.9528 15.1481L27.9864 10.062L8 30.5309L27.9864 51L47.973 30.5309L42.946 25.3828L53 15.0861Z" fill="#00E599"/>
</svg>
    